<?xml version="1.0" encoding="UTF-8"?>
<svg width="82px" height="82px" viewBox="0 0 82 82" version="1.1" xmlns="http://www.w3.org/2000/svg" xmlns:xlink="http://www.w3.org/1999/xlink">
    <!-- Generator: Sketch 43.2 (39069) - http://www.bohemiancoding.com/sketch -->
    <title>profkom-logo</title>
    <desc>Created with Sketch.</desc>
    <defs></defs>
    <g id="site-design" stroke="none" stroke-width="1" fill="none" fill-rule="evenodd">
        <g id="homepage" transform="translate(-679.000000, -88.000000)" fill-rule="nonzero">
            <g id="profkom-logo" transform="translate(679.000000, 88.000000)">
                <circle id="Oval" fill="#FFFFFF" cx="41" cy="41" r="41"></circle>
                <g id="Logo-STUDENTOV" transform="translate(7.008133, 11.696667)">
                    <path d="M38.4852652,56.5361186 L39.1783911,56.5361186 C42.0396326,56.5361186 44.3578518,54.2289361 44.3578518,51.3849128 L44.3578518,45.1542844 C41.0758785,44.1817449 37.6014193,38.5055733 34.0002548,38.5055733 C30.4004148,38.5055733 26.9244986,44.1817449 23.6428785,45.1534015 L23.6428785,51.3849128 C23.6428785,54.2289361 25.9621132,56.5361186 28.8207941,56.5361186 L38.4852652,56.5361186" id="Fill-1" fill="#6FB844"></path>
                    <path d="M34.0002548,62.9751258 C31.8559792,62.9751258 30.1152178,60.3805392 30.1152178,57.1797986 C30.1152178,56.9621482 30.1231644,56.747588 30.1390578,56.5361186 L37.8614518,56.5361186 C37.8773452,56.747588 37.8852918,56.9621482 37.8852918,57.1797986 C37.8852918,60.3805392 36.1454133,62.9751258 34.0002548,62.9751258" id="Fill-2" fill="#CBCCCB"></path>
                    <path d="M37.8614518,56.5361186 L30.1390578,56.5361186 C30.3536178,53.6382341 32.0016681,51.383588 34.0002548,51.383588 C35.9997244,51.383588 37.6468919,53.6382341 37.8614518,56.5361186" id="Fill-3" fill="#5C9737"></path>
                    <path d="M6.59387912,33.5301653 L6.38024621,32.8728877 C5.49613542,30.1673126 6.98472264,27.2610841 9.70504326,26.3820504 L15.6626592,24.4556018 C17.6068113,27.2610841 24.1076702,28.7950557 25.2199828,32.2004673 C26.3313683,35.6062761 21.9804358,40.6484361 22.06573,44.0538035 L16.1070104,45.9794131 C13.3866456,46.8579616 10.4652744,45.377674 9.5823114,42.671834 L9.36642695,42.0149538 L6.59387912,33.5301653" id="Fill-4" fill="#00ACDC"></path>
                    <path d="M6.02118934,42.0603381 C3.98132415,42.0602056 2.29839674,41.2150335 1.8224797,39.7619855 C1.16008089,37.7332015 3.10423289,35.2857606 6.16427347,34.2971511 C6.37221125,34.2298693 6.57997242,34.171064 6.78676239,34.1205144 L9.17367615,41.4250021 C8.97637805,41.5051309 8.77342905,41.5791232 8.56535879,41.6463167 C7.69625837,41.9273197 6.83077808,42.0603822 6.02118934,42.0603381" id="Fill-5" fill="#CBCCCB"></path>
                    <path d="M9.17367615,41.4250021 L6.78676239,34.1205144 C7.44571762,33.9594619 8.09491613,33.8822909 8.71166579,33.8822909 C10.7509129,33.8822909 12.4315887,34.7273748 12.9048127,36.1806436 C13.5254474,38.0719061 11.8779268,40.3267727 9.17367615,41.4250021" id="Fill-6" fill="#008EB6"></path>
                    <path d="M46.4279586,4.75740443 L45.8663939,4.35119733 C43.5552385,2.67890963 40.3147644,3.18935052 38.6353689,5.49136739 L34.9512059,10.531938 C37.0332326,13.2382195 36.4910933,19.8611482 39.4035466,21.9667058 C41.029523,23.1412672 43.6682578,22.8630456 46.2447437,22.5848681 C48.2839466,22.364613 50.2842992,22.1443579 51.711609,22.6449096 L55.3935643,17.6032352 C57.0751675,15.3015716 56.5604002,12.0802136 54.2470371,10.4075286 L53.6841481,10.0017188 L46.4279586,4.75740443" id="Fill-7" fill="#D33E88"></path>
                    <path d="M53.1799761,9.63727586 L46.9338963,5.12299524 C47.0460327,4.94282666 47.1665572,4.7640708 47.2950279,4.58800801 C48.6521421,2.73007733 50.548305,1.64796207 52.1522073,1.64796207 C52.7844091,1.64796207 53.3706963,1.81581333 53.8616235,2.17041126 C55.5979703,3.42457185 55.4717067,6.54090133 53.5799585,9.13045509 C53.4510458,9.30647379 53.3177184,9.47547287 53.1799761,9.63727586" id="Fill-8" fill="#CBCCCB"></path>
                    <path d="M48.7218963,12.0697947 C48.0901364,12.0697947 47.5042906,11.9020317 47.0142458,11.5476987 C45.3962163,10.3784791 45.3966578,7.59290753 46.9338963,5.12299524 L53.1799761,9.63727586 C51.8656861,11.1829908 50.1734876,12.0697947 48.7218963,12.0697947" id="Fill-9" fill="#AD3470"></path>
                    <path d="M58.6340385,42.0149538 L58.4203615,42.6729378 C57.5343083,45.378557 54.6139083,46.8579616 51.8926162,45.9794131 L51.8926162,45.9789717 L45.9370309,44.0538035 C46.0222371,40.6484361 41.6679052,35.6074681 42.7804385,32.2012619 C43.8942963,28.7961594 50.3937865,27.2610841 52.3389541,24.4556018 L58.2954222,26.3816972 L58.2954222,26.3820504 C61.0145067,27.2610841 62.5045068,30.1673126 61.6202193,32.8728877 L61.4065423,33.5301653 L58.6340385,42.0149538" id="Fill-10" fill="#F9C940"></path>
                    <path d="M61.9795852,42.0603381 C61.1699081,42.0603381 60.3037216,41.9272755 59.4340032,41.6463167 C59.2265067,41.5791674 59.0238665,41.5053517 58.8269658,41.4253111 L61.2140564,34.1201612 C61.4202281,34.1706225 61.6277246,34.2292954 61.8352206,34.2964006 C64.8973361,35.2857606 66.8402965,37.7332015 66.1767497,39.7619855 C65.7025984,41.2151659 64.0205543,42.0603822 61.9795852,42.0603381" id="Fill-11" fill="#CBCCCB"></path>
                    <path d="M58.8269658,41.4253111 C56.1233333,40.3271259 54.477049,38.0720385 55.0946816,36.1806436 C55.5697154,34.7269774 57.2504356,33.8819819 59.2896385,33.8819819 C59.9059464,33.8819819 60.5553659,33.9592412 61.2140564,34.1201612 L58.8269658,41.4253111" id="Fill-12" fill="#C9A536"></path>
                    <path d="M14.2911087,10.0017188 L13.730957,10.4075286 C11.4151659,12.0802136 10.9027384,15.3015716 12.5855333,17.6032352 L16.2671357,22.6445564 C17.693165,22.143784 19.6934735,22.3641716 21.7333387,22.5845591 C24.309648,22.8628249 26.949045,23.141179 28.5744474,21.9667058 C31.4855763,19.8615013 30.9447615,13.2374691 33.0254637,10.531938 L29.3435081,5.49136739 C27.663053,3.18935052 24.4235061,2.67890963 22.1088187,4.35119733 L21.5475633,4.75740443 L14.2911087,10.0017188" id="Fill-13" fill="#DD4039"></path>
                    <path d="M14.7953689,9.63732001 C14.657715,9.47547287 14.5242551,9.30647379 14.3956074,9.13045509 C12.5048305,6.54090133 12.3786993,3.42457185 14.1150459,2.17041126 C14.6053552,1.81581333 15.1920841,1.64782963 15.8239325,1.64782963 C17.4279671,1.64782963 19.3240418,2.72990074 20.6804936,4.58800801 C20.8091413,4.7640708 20.9296658,4.94265009 21.0419345,5.12281866 L14.7953689,9.63732001" id="Fill-14" fill="#CBCCCB"></path>
                    <path d="M19.254994,12.0697947 C17.8023876,12.0697947 16.1101449,11.1831674 14.7953689,9.63732001 L21.0419345,5.12281866 C22.5810273,7.59273096 22.5806299,10.3784791 20.9635274,11.5476987 C20.4733946,11.9019434 19.8867099,12.0697947 19.254994,12.0697947" id="Fill-15" fill="#B33532"></path>
                    <path d="M21.4975875,5.27354045 C21.4975875,8.10661539 19.1999855,10.4036435 16.3682791,10.4036435 C13.5344095,10.4036435 11.2390148,8.10661539 11.2390148,5.27354045 C11.2390148,2.44095111 13.5344095,0.143922963 16.3682791,0.143922963 C19.1999855,0.143922963 21.4975875,2.44095111 21.4975875,5.27354045" id="Fill-16" fill="#DD4039"></path>
                    <path d="M10.5970124,38.6148841 C10.5970124,35.7822507 8.30055824,33.4859289 5.46774816,33.4859289 C2.63498222,33.4859289 0.337380148,35.7822507 0.337380148,38.6148841 C0.337380148,41.4483564 2.63498222,43.7449873 5.46774816,43.7449873 C8.30055824,43.7449873 10.5970124,41.4483564 10.5970124,38.6148841" id="Fill-17" fill="#00ACDC"></path>
                    <path d="M39.1293867,59.1337957 C39.1293867,61.9667823 36.8332415,64.263369 34.0002548,64.263369 C31.1672681,64.263369 28.8697985,61.9667823 28.8697985,59.1337957 C28.8697985,56.3008087 31.1672681,54.0037809 34.0002548,54.0037809 C36.8332415,54.0037809 39.1293867,56.3008087 39.1293867,59.1337957" id="Fill-18" fill="#6FB844"></path>
                    <path d="M67.6618932,38.6148841 C67.6618932,41.4483564 65.3653064,43.7449873 62.5336446,43.7449873 C59.6997747,43.7449873 57.4045127,41.4483564 57.4045127,38.6148841 C57.4045127,35.7822507 59.6997747,33.4859289 62.5336446,33.4859289 C65.3653064,33.4859289 67.6618932,35.7822507 67.6618932,38.6148841" id="Fill-19" fill="#F9C940"></path>
                    <path d="M56.7625985,5.27354045 C56.7625985,8.10661539 54.4660118,10.4036435 51.6321423,10.4036435 C48.8004801,10.4036435 46.5030104,8.10661539 46.5030104,5.27354045 C46.5030104,2.44095111 48.8004801,0.143922963 51.6321423,0.143922963 C54.4660118,0.143922963 56.7625985,2.44095111 56.7625985,5.27354045" id="Fill-20" fill="#D33E88"></path>
                </g>
            </g>
        </g>
    </g>
</svg>