<?xml version="1.0" encoding="UTF-8"?>
<svg class="social-icon" width="200" height="200" viewBox="0 0 52 52" version="1.1" xmlns="http://www.w3.org/2000/svg" xmlns:xlink="http://www.w3.org/1999/xlink">
  <a xlink:href="https://www.example.com">
    <circle cx="26" cy="26" r="100" fill="rgba(255,255,255,0.0)"></circle>
    <circle cx="26" cy="26" r="26" fill="#FFF"></circle>
    <path class="icon" d="M33.435144,12.0058259 L29.8373261,12 C25.795301,12 23.1831669,14.7046597 23.1831669,18.8908378 L23.1831669,22.0679754 L19.5657219,22.0679754 C19.2531317,22.0679754 19,22.3237311 19,22.6392019 L19,27.2425122 C19,27.557983 19.2534203,27.8134474 19.5657219,27.8134474 L23.1831669,27.8134474 L23.1831669,39.4290648 C23.1831669,39.7445356 23.4362986,40 23.7488888,40 L28.4686255,40 C28.7812157,40 29.0343474,39.7442444 29.0343474,39.4290648 L29.0343474,27.8134474 L33.2639843,27.8134474 C33.5765745,27.8134474 33.8297062,27.557983 33.8297062,27.2425122 L33.831438,22.6392019 C33.831438,22.4877293 33.7716908,22.3426651 33.6657623,22.2354691 C33.5598337,22.1282732 33.4155169,22.0679754 33.2654275,22.0679754 L29.0343474,22.0679754 L29.0343474,19.3746762 C29.0343474,18.0801681 29.3400104,17.4230101 31.0109104,17.4230101 L33.4345668,17.4221362 C33.7468683,17.4221362 34,17.1663806 34,16.8512011 L34,12.576761 C34,12.2618728 33.747157,12.0064085 33.435144,12.0058259 Z"></path>
  </a>
</svg>
