<?xml version="1.0" encoding="utf-8"?>
<!-- Generator: Adobe Illustrator 21.0.2, SVG Export Plug-In . SVG Version: 6.00 Build 0)  -->
<svg version="1.1" id="Layer_1" xmlns="http://www.w3.org/2000/svg" xmlns:xlink="http://www.w3.org/1999/xlink" x="0px" y="0px"
	 viewBox="0 0 60 60" style="enable-background:new 0 0 60 60;" xml:space="preserve">
<style type="text/css">
	.st0{fill-rule:evenodd;clip-rule:evenodd;fill:#3D7992;}
</style>
<g>
	<path class="st0" d="M43.87,21.98c-0.43,0.26-1,0.13-1.27-0.3c-0.27-0.42-0.14-0.99,0.29-1.26l14.77-9.22
		c0.43-0.27,1-0.14,1.27,0.29c0.09,0.15,0.14,0.32,0.14,0.49v35.03c0,0.35-0.19,0.65-0.48,0.81L42.04,58.84
		c-0.27,0.18-0.61,0.2-0.89,0.06L17.62,48.06L1.44,58.83c-0.42,0.29-1,0.17-1.28-0.25C0.04,58.4-0.01,58.18,0,57.98l0.02-34.7
		c0-0.34,0.18-0.64,0.45-0.8l12.9-7.61c0.44-0.25,1-0.11,1.27,0.32c0.25,0.44,0.11,1-0.33,1.26L1.85,23.81L1.84,56.34l15.18-10.11
		v0.01c0.25-0.18,0.59-0.22,0.89-0.08l23.53,10.85l15.78-10.5V13.64L43.87,21.98z M43.87,21.98"/>
	<path class="st0" d="M29.53,0c3.57,0,6.8,1.44,9.14,3.78h0.01c2.34,2.34,3.78,5.57,3.78,9.13c0,3.61-2.03,7.9-4.58,11.94
		c-2.52,3.97-5.53,7.69-7.63,10.25c-0.32,0.39-0.9,0.45-1.3,0.13c-0.07-0.06-0.13-0.12-0.18-0.2c-2.11-2.57-5.11-6.27-7.59-10.19
		c-2.56-4.03-4.57-8.33-4.57-11.94c0-3.56,1.45-6.79,3.78-9.12C22.73,1.44,25.96,0,29.53,0L29.53,0z M37.37,5.08
		c-2.01-2-4.78-3.23-7.84-3.23c-3.05,0-5.82,1.24-7.83,3.23c-2,2.01-3.25,4.77-3.25,7.82c0,3.22,1.9,7.17,4.29,10.96
		c2.18,3.44,4.78,6.73,6.79,9.2c2.02-2.47,4.62-5.76,6.8-9.2c2.39-3.78,4.28-7.74,4.28-10.96C40.61,9.85,39.37,7.09,37.37,5.08
		L37.37,5.08z M37.37,5.08"/>
	<path class="st0" d="M29.53,7.38c1.53,0,2.92,0.62,3.92,1.61V9c1,1,1.62,2.38,1.62,3.91c0,1.52-0.62,2.91-1.62,3.9v0.01
		c-1,1-2.38,1.62-3.92,1.62c-1.53,0-2.91-0.62-3.92-1.62c-1-1-1.62-2.39-1.62-3.91c0-1.53,0.62-2.91,1.62-3.91V8.99
		C26.62,8,28,7.38,29.53,7.38L29.53,7.38z M32.15,10.29L32.15,10.29c-0.68-0.66-1.6-1.08-2.62-1.08c-1.01,0-1.94,0.41-2.61,1.09
		v-0.01c-0.67,0.67-1.08,1.59-1.08,2.62c0,1.01,0.41,1.94,1.08,2.61c0.67,0.66,1.6,1.08,2.61,1.08c1.02,0,1.94-0.41,2.61-1.08h0.01
		c0.67-0.67,1.07-1.59,1.07-2.61C33.23,11.89,32.82,10.96,32.15,10.29L32.15,10.29z M32.15,10.29"/>
	<path class="st0" d="M42.45,58.07c0,0.51-0.41,0.92-0.92,0.92c-0.51,0-0.92-0.41-0.92-0.92l0.01-33.18c0-0.51,0.41-0.92,0.92-0.92
		c0.51,0,0.92,0.41,0.92,0.92L42.45,58.07z M42.45,58.07"/>
	<path class="st0" d="M18.45,46.6c0,0.51-0.41,0.92-0.92,0.92c-0.51,0-0.92-0.41-0.92-0.92V24.88c0-0.51,0.41-0.91,0.92-0.91
		c0.51,0,0.92,0.4,0.92,0.91V46.6z M18.45,46.6"/>
</g>
</svg>
