<?xml version="1.0" encoding="UTF-8"?>
<svg class="icon-canvas" width="52px" viewBox="0 0 52 52" version="1.1" xmlns="http://www.w3.org/2000/svg">
  <g class="icon" style="transform: translate(12px, 12px);">
    <path d="M20.8810235,0 L7.95862353,0 C3.57024118,0 0,3.57041176 0,7.95879412 L0,20.8811941 C0,25.2697471 3.57024118,28.8399882 7.95862353,28.8399882 L20.8810235,28.8399882 C25.2697471,28.8399882 28.8399882,25.2695765 28.8399882,20.8811941 L28.8399882,7.95879412 C28.8401588,3.57041176 25.2697471,0 20.8810235,0 Z M26.2813353,20.8811941 C26.2813353,23.8588118 23.8588118,26.2811647 20.8811941,26.2811647 L7.95862353,26.2811647 C4.98117647,26.2813353 2.55882353,23.8588118 2.55882353,20.8811941 L2.55882353,7.95879412 C2.55882353,4.98134706 4.98117647,2.55882353 7.95862353,2.55882353 L20.8810235,2.55882353 C23.8586412,2.55882353 26.2811647,4.98134706 26.2811647,7.95879412 L26.2811647,20.8811941 L26.2813353,20.8811941 Z"></path>
    <path d="M14.4199941,6.989 C10.3222941,6.989 6.98865882,10.3226353 6.98865882,14.4203353 C6.98865882,18.5178647 10.3222941,21.8513294 14.4199941,21.8513294 C18.5176941,21.8513294 21.8513294,18.5178647 21.8513294,14.4203353 C21.8513294,10.3226353 18.5176941,6.989 14.4199941,6.989 Z M14.4199941,19.2923353 C11.7334,19.2923353 9.54748235,17.1067588 9.54748235,14.4201647 C9.54748235,11.7334 11.7332294,9.54765294 14.4199941,9.54765294 C17.1067588,9.54765294 19.2925059,11.7334 19.2925059,14.4201647 C19.2925059,17.1067588 17.1065882,19.2923353 14.4199941,19.2923353 Z"></path>
    <path d="M22.1629941,4.81928824 C21.6699941,4.81928824 21.1856941,5.01887647 20.8375235,5.36858235 C20.4876471,5.71658235 20.2865235,6.20105294 20.2865235,6.69575882 C20.2865235,7.18892941 20.4878176,7.67322941 20.8375235,8.02293529 C21.1855235,8.37093529 21.6699941,8.57222941 22.1629941,8.57222941 C22.6577,8.57222941 23.1404647,8.37093529 23.4901706,8.02293529 C23.8398765,7.67322941 24.0394647,7.18875882 24.0394647,6.69575882 C24.0394647,6.20105294 23.8398765,5.71658235 23.4901706,5.36858235 C23.1421706,5.01887647 22.6577,4.81928824 22.1629941,4.81928824 Z"></path>
  </g>
</svg>
