<?xml version="1.0" encoding="UTF-8"?>
<svg class="icon-canvas" width="52px" viewBox="0 0 52 52" version="1.1" xmlns="http://www.w3.org/2000/svg">
  <path class="icon" d="M15.4496882,30.3787633 C16.7624078,32.0424246 18.270276,33.5137406 20.2187395,34.5544251 C22.4250626,35.7340424 24.8007374,36.0900581 27.3057198,35.9815167 C28.4765034,35.929013 28.8284832,35.6435745 28.8823433,34.5524057 C28.9186099,33.8049344 29.0110032,33.0594824 29.4042147,32.3881415 C29.790842,31.7291187 30.3775829,31.6046243 31.0540189,32.0146582 C31.3911035,32.2214422 31.6748677,32.4807298 31.9433049,32.7579899 C32.6026869,33.4313502 33.2411293,34.1284381 33.9241493,34.7796862 C34.7831053,35.5976337 35.8015909,36.0796583 37.0796629,35.9814158 L42.0312343,35.9834351 C42.8281269,35.9330518 43.2427097,35.0188811 42.7851683,34.1844757 C42.462871,33.6020882 42.0399771,33.0836139 41.5929055,32.5809917 C40.581004,31.4435792 39.3887412,30.4748855 38.2614559,29.4460144 C37.2451291,28.518011 37.1807991,27.979343 37.9969044,26.9082669 C38.8905079,25.7384435 39.8485492,24.6154696 40.7487368,23.4518052 C41.5884801,22.3647762 42.4502424,21.2793626 42.8901902,19.9793905 C43.1717957,19.1496297 42.922679,18.7838201 42.0163391,18.6372135 C41.8596158,18.613082 41.6963084,18.613082 41.5373184,18.613082 L36.149577,18.6069229 C35.4857697,18.5971289 35.1206216,18.8682299 34.8864002,19.4187113 C34.5685282,20.1625477 34.2419133,20.9059803 33.8634892,21.6215455 C33.0089586,23.249262 32.0525363,24.8223545 30.7124009,26.1527181 C30.4160082,26.4459312 30.0871267,26.8178999 29.5933188,26.6651343 C28.9768954,26.4542107 28.7942674,25.5019748 28.8047372,25.1804905 L28.8003118,19.3627746 C28.6803948,18.5330138 28.4824399,18.1610451 27.5998459,18 L22.0036798,18 C21.2584885,18 20.882331,18.2716058 20.4825355,18.7073868 C20.2548981,18.9610201 20.1838761,19.1235798 20.6568524,19.2079896 C21.5845637,19.3725686 22.1108604,19.9353681 22.2483711,20.8058194 C22.469964,22.1983797 22.4546371,23.5965944 22.3258692,24.9932945 C22.2896027,25.401208 22.2142632,25.8071022 22.0421051,26.1888649 C21.7715091,26.7897297 21.3332883,26.9105892 20.7597155,26.5407409 C20.2422696,26.2073422 19.8771216,25.7372319 19.518018,25.2649003 C18.1756159,23.4900724 17.1059686,21.5774222 16.2315778,19.5675392 C15.9801945,18.9867672 15.5441324,18.6353961 14.8869091,18.6250973 C13.2712127,18.6009657 11.6538973,18.5973309 10.0359343,18.6271166 C9.06526437,18.6430697 8.7749161,19.0855146 9.17255291,19.9111357 C10.9319123,23.5743813 12.8913854,27.1352446 15.4496882,30.3787633 Z"></path>
</svg>
