<?xml version="1.0" encoding="utf-8"?>
<!-- Generator: Adobe Illustrator 21.0.2, SVG Export Plug-In . SVG Version: 6.00 Build 0)  -->
<svg version="1.1" id="Layer_1" xmlns="http://www.w3.org/2000/svg" xmlns:xlink="http://www.w3.org/1999/xlink" x="0px" y="0px"
	 viewBox="0 0 59.95 59.95" style="enable-background:new 0 0 59.95 59.95;" xml:space="preserve">
<style type="text/css">
	.st0{fill:#3F7992;}
</style>
<g>
	<path class="st0" d="M34.08,28.43c0.18,0.35,0.53,0.55,0.89,0.55c0.15,0,0.31-0.03,0.45-0.11c0.06-0.03,5.94-3.02,8.84-3.93
		c0.53-0.17,0.82-0.73,0.65-1.25c-0.17-0.53-0.72-0.82-1.25-0.65c-3.06,0.97-8.9,3.93-9.14,4.06
		C34.03,27.34,33.83,27.94,34.08,28.43L34.08,28.43z M34.08,28.43"/>
	<path class="st0" d="M34.97,16.99c0.15,0,0.31-0.04,0.45-0.11c0.06-0.03,5.94-3.02,8.84-3.93c0.53-0.17,0.82-0.73,0.65-1.25
		c-0.17-0.53-0.72-0.82-1.25-0.65c-3.06,0.97-8.9,3.93-9.14,4.06c-0.49,0.25-0.69,0.85-0.44,1.34
		C34.26,16.79,34.61,16.99,34.97,16.99L34.97,16.99z M34.97,16.99"/>
	<path class="st0" d="M58.95,14.99c-0.55,0-1,0.45-1,1v38.97c0,1.65-1.34,3-3,3H30.98v-2.3c1.46-0.51,5.25-1.7,8.99-1.7
		c8.7,0,14.61,1.93,14.67,1.95c0.3,0.1,0.64,0.05,0.9-0.14c0.26-0.19,0.41-0.49,0.41-0.81V10.99c0-0.47-0.32-0.87-0.78-0.98
		c0,0-0.78-0.18-2.12-0.42c-0.54-0.1-1.06,0.26-1.16,0.8c-0.1,0.54,0.26,1.06,0.8,1.16c0.51,0.09,0.94,0.18,1.27,0.24v41.83
		c-2.26-0.59-7.29-1.67-13.99-1.67c-4.35,0-8.63,1.43-9.95,1.91c-1.18-0.52-4.73-1.91-9.03-1.91C14.1,51.96,8.43,53.1,6,53.67V11.77
		c2-0.49,7.89-1.77,14.99-1.77c3.64,0,6.77,1.13,7.99,1.65v39.32c0,0.36,0.19,0.69,0.51,0.87c0.31,0.18,0.7,0.17,1.01-0.01
		c0.1-0.06,10-5.97,18.79-8.9c0.41-0.14,0.68-0.52,0.68-0.95V1c0-0.33-0.16-0.63-0.43-0.82c-0.27-0.19-0.61-0.23-0.92-0.11
		c-7.99,3-16.08,8.03-16.17,8.08c-0.47,0.29-0.61,0.91-0.32,1.38c0.29,0.47,0.91,0.61,1.38,0.32c0.07-0.05,7.11-4.43,14.46-7.38
		v38.79c-6.82,2.37-13.94,6.24-16.99,7.97V10.99c0-0.38-0.21-0.72-0.55-0.89c-0.17-0.09-4.27-2.1-9.44-2.1
		c-9.03,0-15.97,1.95-16.26,2.04C4.29,10.15,4,10.55,4,10.99v43.97c0,0.31,0.15,0.61,0.4,0.8c0.18,0.13,0.39,0.2,0.6,0.2
		c0.09,0,0.18-0.01,0.27-0.04c0.07-0.02,6.98-1.96,15.71-1.96c3.65,0,6.77,1.14,7.99,1.65v2.35H5c-1.65,0-3-1.34-3-3V15.99
		c0-0.55-0.45-1-1-1c-0.55,0-1,0.45-1,1v38.97c0,2.76,2.24,5,5,5h49.96c2.75,0,5-2.24,5-5V15.99
		C59.95,15.44,59.51,14.99,58.95,14.99L58.95,14.99z M58.95,14.99"/>
	<path class="st0" d="M34.08,22.44c0.18,0.35,0.53,0.55,0.89,0.55c0.15,0,0.31-0.03,0.45-0.11c0.06-0.03,5.94-3.02,8.84-3.93
		c0.53-0.17,0.82-0.73,0.65-1.25c-0.17-0.53-0.72-0.82-1.25-0.65c-3.06,0.97-8.9,3.93-9.14,4.06
		C34.03,21.34,33.83,21.94,34.08,22.44L34.08,22.44z M34.08,22.44"/>
	<path class="st0" d="M34.08,34.43c0.18,0.35,0.53,0.55,0.89,0.55c0.15,0,0.31-0.04,0.45-0.11c0.06-0.03,5.94-3.02,8.84-3.93
		c0.53-0.17,0.82-0.73,0.65-1.25c-0.17-0.53-0.72-0.82-1.25-0.65c-3.06,0.97-8.9,3.93-9.14,4.06
		C34.03,33.33,33.83,33.94,34.08,34.43L34.08,34.43z M34.08,34.43"/>
	<path class="st0" d="M24.21,18.54c-6.17-1.45-13.18,0.4-13.48,0.48c-0.53,0.14-0.85,0.69-0.71,1.22c0.12,0.45,0.52,0.74,0.96,0.74
		c0.09,0,0.17-0.01,0.26-0.03c0.07-0.02,6.82-1.79,12.5-0.46c0.53,0.12,1.07-0.21,1.2-0.75C25.08,19.21,24.75,18.67,24.21,18.54
		L24.21,18.54z M24.21,18.54"/>
	<path class="st0" d="M24.21,24.54c-6.17-1.45-13.18,0.4-13.48,0.48c-0.53,0.14-0.85,0.69-0.71,1.22c0.12,0.45,0.52,0.74,0.96,0.74
		c0.09,0,0.17-0.01,0.26-0.03c0.07-0.02,6.82-1.79,12.5-0.46c0.53,0.12,1.07-0.21,1.2-0.75C25.08,25.2,24.75,24.67,24.21,24.54
		L24.21,24.54z M24.21,24.54"/>
	<path class="st0" d="M34.08,40.42c0.18,0.35,0.53,0.55,0.89,0.55c0.15,0,0.31-0.03,0.45-0.11c0.06-0.03,5.94-3.02,8.84-3.93
		c0.53-0.17,0.82-0.73,0.65-1.25c-0.17-0.53-0.72-0.82-1.25-0.65c-3.06,0.97-8.9,3.93-9.14,4.06
		C34.03,39.33,33.83,39.93,34.08,40.42L34.08,40.42z M34.08,40.42"/>
	<path class="st0" d="M24.21,30.53c-6.17-1.45-13.18,0.4-13.48,0.48c-0.53,0.14-0.85,0.69-0.71,1.22c0.12,0.45,0.52,0.74,0.96,0.74
		c0.09,0,0.17-0.01,0.26-0.03c0.07-0.02,6.82-1.79,12.5-0.46c0.53,0.13,1.07-0.21,1.2-0.75C25.08,31.2,24.75,30.66,24.21,30.53
		L24.21,30.53z M24.21,30.53"/>
	<path class="st0" d="M24.21,42.53c-6.17-1.45-13.18,0.4-13.48,0.48c-0.53,0.14-0.85,0.69-0.71,1.22c0.12,0.45,0.52,0.74,0.96,0.74
		c0.09,0,0.17-0.01,0.26-0.03c0.07-0.02,6.82-1.79,12.5-0.46c0.53,0.12,1.07-0.21,1.2-0.75C25.08,43.19,24.75,42.65,24.21,42.53
		L24.21,42.53z M24.21,42.53"/>
	<path class="st0" d="M24.21,36.53c-6.17-1.45-13.18,0.4-13.48,0.48c-0.53,0.14-0.85,0.69-0.71,1.22c0.12,0.45,0.52,0.74,0.96,0.74
		c0.09,0,0.17-0.01,0.26-0.03c0.07-0.02,6.82-1.79,12.5-0.46c0.53,0.13,1.07-0.21,1.2-0.75C25.08,37.19,24.75,36.66,24.21,36.53
		L24.21,36.53z M24.21,36.53"/>
</g>
</svg>
