<?xml version="1.0" encoding="utf-8"?>
<!-- Generator: Adobe Illustrator 21.0.2, SVG Export Plug-In . SVG Version: 6.00 Build 0)  -->
<svg version="1.1" id="Layer_1" xmlns="http://www.w3.org/2000/svg" xmlns:xlink="http://www.w3.org/1999/xlink" x="0px" y="0px"
	 viewBox="0 0 60 56" style="enable-background:new 0 0 60 56;" xml:space="preserve">
<style type="text/css">
	.st0{fill:#3F7992;}
</style>
<g>
	<path class="st0" d="M42.24,50.03c-0.54-0.14-1.08,0.19-1.21,0.73l-1,4c-0.13,0.54,0.19,1.08,0.73,1.21C40.84,55.99,40.92,56,41,56
		c0.45,0,0.85-0.3,0.97-0.76l1-4C43.1,50.71,42.78,50.16,42.24,50.03L42.24,50.03z M42.24,50.03"/>
	<path class="st0" d="M30,30c0.13,0,0.26-0.02,0.38-0.08l11-4.55c0.51-0.21,0.75-0.8,0.54-1.31c-0.21-0.51-0.8-0.75-1.31-0.54
		L30,27.92L2,16.33V16c0-0.55-0.45-1-1-1c-0.55,0-1,0.45-1,1v1c0,0.41,0.24,0.77,0.62,0.92l29,12C29.74,29.97,29.87,30,30,30L30,30z
		 M30,30"/>
	<path class="st0" d="M41.9,40.24c-0.24-0.49-0.84-0.7-1.34-0.45c-1.9,0.94-5.07,2.03-9.56,2.18V33c0-0.55-0.45-1-1-1
		c-0.55,0-1,0.45-1,1v8.96c-12.42-0.4-16.42-7.92-17-9.17V26c0-0.55-0.45-1-1-1c-0.55,0-1,0.45-1,1v7c0,0.13,0.02,0.25,0.07,0.37
		C10.25,33.8,14.5,44,30,44c5.42,0,9.21-1.31,11.44-2.42C41.94,41.34,42.14,40.74,41.9,40.24L41.9,40.24z M41.9,40.24"/>
	<path class="st0" d="M45,51c-0.55,0-1,0.45-1,1v3c0,0.55,0.45,1,1,1c0.55,0,1-0.45,1-1v-3C46,51.45,45.55,51,45,51L45,51z M45,51"
		/>
	<path class="st0" d="M59,15c-0.55,0-1,0.45-1,1v0.33l-12,4.94v-1.81l13.38-5.54C59.76,13.77,60,13.4,60,13
		c0-0.41-0.24-0.77-0.62-0.92l-29-12c-0.24-0.1-0.52-0.1-0.76,0l-29,12C0.24,12.23,0,12.59,0,13c0,0.41,0.24,0.77,0.62,0.92l29,12
		C29.74,25.97,29.87,26,30,26s0.26-0.03,0.38-0.08l10.49-4.34c0.51-0.21,0.75-0.79,0.54-1.31c-0.21-0.51-0.8-0.75-1.31-0.54
		L30,23.92L3.62,13L30,2.08L56.38,13L44.9,17.75l-11-4.11C33.96,13.44,34,13.22,34,13c0-1.68-1.76-3-4-3c-2.24,0-4,1.32-4,3
		c0,1.68,1.76,3,4,3c1,0,1.89-0.27,2.59-0.71L44,19.55v24.64c-1.16,0.41-2,1.51-2,2.82c0,1.65,1.35,3,3,3c1.65,0,3-1.35,3-3
		c0-1.3-0.84-2.4-2-2.82v-5.68c2.87-2.17,3.9-5.05,3.94-5.18C49.98,33.22,50,33.11,50,33v-7c0-0.55-0.45-1-1-1c-0.55,0-1,0.45-1,1
		v6.82c-0.17,0.42-0.77,1.73-2,3.02v-12.4l13.38-5.51C59.76,17.77,60,17.4,60,17v-1C60,15.45,59.55,15,59,15L59,15z M30,14
		c-1.22,0-2-0.59-2-1c0-0.41,0.78-1,2-1s2,0.59,2,1C32,13.41,31.22,14,30,14L30,14z M45,48c-0.55,0-1-0.45-1-1c0-0.55,0.45-1,1-1
		c0.55,0,1,0.45,1,1C46,47.55,45.55,48,45,48L45,48z M45,48"/>
	<path class="st0" d="M48.97,50.76c-0.13-0.53-0.68-0.86-1.21-0.73c-0.54,0.13-0.86,0.68-0.73,1.21l1,4C48.14,55.7,48.55,56,49,56
		c0.08,0,0.16-0.01,0.24-0.03c0.54-0.13,0.86-0.68,0.73-1.21L48.97,50.76z M48.97,50.76"/>
</g>
</svg>
