<?xml version="1.0" encoding="utf-8"?>
<!-- Generator: Adobe Illustrator 21.0.2, SVG Export Plug-In . SVG Version: 6.00 Build 0)  -->
<svg version="1.1" id="Layer_1" xmlns="http://www.w3.org/2000/svg" xmlns:xlink="http://www.w3.org/1999/xlink" x="0px" y="0px"
	 viewBox="0 0 60 60" style="enable-background:new 0 0 60 60;" xml:space="preserve">
<style type="text/css">
	.st0{fill:#FFFFFF;}
</style>
<path class="st0" d="M59.48,56.94L44.9,42.36c3.91-4.5,6.28-10.36,6.28-16.78C51.18,11.47,39.69,0,25.59,0C11.47,0,0,11.48,0,25.58
	s11.48,25.58,25.59,25.58c6.41,0,12.28-2.37,16.78-6.28l14.58,14.58C57.3,59.81,57.76,60,58.22,60c0.45,0,0.92-0.17,1.26-0.53
	C60.17,58.78,60.17,57.63,59.48,56.94L59.48,56.94z M3.58,25.58c0-12.13,9.87-21.99,22-21.99c12.14,0,22,9.87,22,21.99
	s-9.86,22-22,22C13.45,47.59,3.58,37.72,3.58,25.58L3.58,25.58z"/>
</svg>
