<?xml version="1.0" encoding="utf-8"?>
<!-- Generator: Adobe Illustrator 21.0.0, SVG Export Plug-In . SVG Version: 6.00 Build 0)  -->
<svg version="1.1" id="Layer_1" xmlns="http://www.w3.org/2000/svg" xmlns:xlink="http://www.w3.org/1999/xlink" x="0px" y="0px"
	 viewBox="0 0 512 512" style="enable-background:new 0 0 512 512;" xml:space="preserve">
<style type="text/css">
	.st0{fill:#FFFFFF;}
</style>
<g>
	<path class="st0" d="M256,22.75C127.18,22.75,22.75,127.18,22.75,256S127.18,489.25,256,489.25S489.25,384.82,489.25,256
		S384.82,22.75,256,22.75z M382.11,153.14l-49.65,238.83c-1.17,5.64-7.78,8.19-12.45,4.8l-67.78-49.21
		c-4.12-2.99-9.73-2.83-13.67,0.38L201,378.57c-4.36,3.57-10.94,1.58-12.6-3.79l-26.09-83.91L94.88,265.7
		c-6.85-2.57-6.9-12.23-0.08-14.87l276.67-106.73C377.34,141.84,383.39,146.98,382.11,153.14z"/>
	<path class="st0" d="M315.94,196.32l-131.75,81.15c-5.05,3.12-7.43,9.21-5.8,14.92l14.24,50.06c1.01,3.54,6.16,3.18,6.65-0.49
		l3.7-27.45c0.7-5.17,3.17-9.93,6.99-13.49l108.74-101.08C320.74,198.07,318.31,194.87,315.94,196.32z"/>
</g>
<g>
</g>
<g>
</g>
<g>
</g>
<g>
</g>
<g>
</g>
<g>
</g>
<g>
</g>
<g>
</g>
<g>
</g>
<g>
</g>
<g>
</g>
<g>
</g>
<g>
</g>
<g>
</g>
<g>
</g>
</svg>
