<?xml version="1.0" encoding="utf-8"?>
<!-- Generator: Adobe Illustrator 21.0.0, SVG Export Plug-In . SVG Version: 6.00 Build 0)  -->
<svg version="1.1" id="Layer_1" xmlns="http://www.w3.org/2000/svg" xmlns:xlink="http://www.w3.org/1999/xlink" x="0px" y="0px"
	 viewBox="0 0 512 512" style="enable-background:new 0 0 512 512;" xml:space="preserve">
<style type="text/css">
	.st0{fill:#FFFFFF;}
</style>
<g>
	<path class="st0" d="M313.8,149.89H198.2c-26.64,0-48.31,21.67-48.31,48.31v115.6c0,26.64,21.67,48.31,48.31,48.31h115.6
		c26.64,0,48.31-21.67,48.31-48.31V198.2C362.11,171.56,340.44,149.89,313.8,149.89z M256,322.48c-36.66,0-66.48-29.82-66.48-66.48
		c0-36.65,29.82-66.47,66.48-66.47c36.65,0,66.48,29.82,66.48,66.47C322.48,292.66,292.65,322.48,256,322.48z M337.14,198.77
		c-3.13,3.11-7.44,4.91-11.87,4.91c-4.41,0-8.75-1.8-11.86-4.91c-3.13-3.13-4.93-7.46-4.93-11.87c0-4.43,1.79-8.76,4.93-11.88
		c3.11-3.13,7.44-4.91,11.86-4.91c4.43,0,8.75,1.78,11.87,4.91c3.13,3.12,4.92,7.45,4.92,11.88
		C342.06,191.31,340.27,195.64,337.14,198.77z"/>
	<path class="st0" d="M256,212.41c-24.04,0-43.59,19.56-43.59,43.59c0,24.04,19.56,43.58,43.59,43.58
		c24.03,0,43.59-19.55,43.59-43.58C299.59,231.97,280.04,212.41,256,212.41z"/>
	<path class="st0" d="M256,22.75C127.18,22.75,22.75,127.18,22.75,256S127.18,489.25,256,489.25S489.25,384.82,489.25,256
		S384.82,22.75,256,22.75z M385,313.8c0,39.25-31.94,71.2-71.2,71.2H198.2c-39.26,0-71.2-31.94-71.2-71.2V198.2
		c0-39.26,31.94-71.2,71.2-71.2h115.6c39.26,0,71.2,31.94,71.2,71.2V313.8z"/>
</g>
<g>
</g>
<g>
</g>
<g>
</g>
<g>
</g>
<g>
</g>
<g>
</g>
<g>
</g>
<g>
</g>
<g>
</g>
<g>
</g>
<g>
</g>
<g>
</g>
<g>
</g>
<g>
</g>
<g>
</g>
</svg>
