<?xml version="1.0" encoding="utf-8"?>
<!-- Generator: Adobe Illustrator 21.0.0, SVG Export Plug-In . SVG Version: 6.00 Build 0)  -->
<svg version="1.1" id="Layer_1" xmlns="http://www.w3.org/2000/svg" xmlns:xlink="http://www.w3.org/1999/xlink" x="0px" y="0px"
	 viewBox="0 0 512 512" style="enable-background:new 0 0 512 512;" xml:space="preserve">
<style type="text/css">
	.st0{fill:#FFFFFF;}
</style>
<path class="st0" d="M256,22.75C127.18,22.75,22.75,127.18,22.75,256S127.18,489.25,256,489.25S489.25,384.82,489.25,256
	S384.82,22.75,256,22.75z M390.08,364.76l-42.06,0.59c0,0-9.04,1.79-20.93-6.38c-15.73-10.8-30.57-38.87-42.13-35.21
	c-11.72,3.72-11.35,28.98-11.35,28.98s0.09,5.39-2.59,8.27c-2.91,3.13-8.59,3.76-8.59,3.76H243.6c0,0-41.53,2.5-78.12-35.59
	c-39.89-41.54-75.12-123.96-75.12-123.96s-2.03-5.4,0.18-8.02c2.48-2.94,9.24-3.13,9.24-3.13l45-0.29c0,0,4.24,0.71,7.27,2.94
	c2.5,1.84,3.9,5.28,3.9,5.28s7.27,18.4,16.9,35.03c18.8,32.49,27.56,39.59,33.94,36.11c9.3-5.07,6.51-45.92,6.51-45.92
	s0.17-14.82-4.68-21.43c-3.76-5.11-10.84-6.61-13.97-7.03c-2.53-0.34,1.62-6.22,7.01-8.86c8.1-3.97,22.4-4.19,39.29-4.02
	c13.17,0.13,16.96,0.96,22.1,2.2c15.51,3.74,10.25,18.21,10.25,52.91c0,11.11-2.01,26.74,6.02,31.92
	c3.45,2.23,11.88,0.33,32.97-35.47c9.99-16.97,17.49-36.92,17.49-36.92s1.63-3.56,4.18-5.08c2.6-1.56,6.12-1.08,6.12-1.08
	l47.35-0.29c0,0,14.23-1.7,16.53,4.73c2.42,6.74-5.32,22.48-24.66,48.27c-31.77,42.34-35.3,38.38-8.93,62.86
	c25.2,23.39,30.42,34.77,31.27,36.18C412.08,363.4,390.08,364.76,390.08,364.76z"/>
<g>
</g>
<g>
</g>
<g>
</g>
<g>
</g>
<g>
</g>
<g>
</g>
<g>
</g>
<g>
</g>
<g>
</g>
<g>
</g>
<g>
</g>
<g>
</g>
<g>
</g>
<g>
</g>
<g>
</g>
</svg>
