<?xml version="1.0" encoding="utf-8"?>
<!-- Generator: Adobe Illustrator 21.0.2, SVG Export Plug-In . SVG Version: 6.00 Build 0)  -->
<svg version="1.1" id="Layer_1" xmlns="http://www.w3.org/2000/svg" xmlns:xlink="http://www.w3.org/1999/xlink" x="0px" y="0px"
	 viewBox="0 0 418 226.52" style="enable-background:new 0 0 418 226.52;" xml:space="preserve">
<style type="text/css">
	.st0{opacity:0.19;fill:url(#SVGID_1_);}
	.st1{fill:#FFFFFF;}
	.st2{fill:#C8DDE6;}
	.st3{fill:#3D7992;}
</style>
<g>
	
		<radialGradient id="SVGID_1_" cx="208.1552" cy="135.7242" r="203.6637" gradientTransform="matrix(1.0011 -5.322278e-03 1.548198e-03 0.293 -0.4302 97.24)" gradientUnits="userSpaceOnUse">
		<stop  offset="0" style="stop-color:#000000"/>
		<stop  offset="1" style="stop-color:#000000;stop-opacity:0"/>
	</radialGradient>
	<rect y="135.52" class="st0" width="418" height="91"/>
	<g>
		<g>
			<path class="st1" d="M279,32.95v115.75c0,4.32-3.5,7.83-7.83,7.83H147.83c-4.32,0-7.83-3.5-7.83-7.83V8.35
				c0-4.32,3.5-7.83,7.83-7.83h98.71L279,32.95z"/>
		</g>
		<path class="st2" d="M246,24.69V0l32.52,32.52h-24.69C249.5,32.52,246,29.02,246,24.69z"/>
		<g>
			<path class="st3" d="M180,100.52v-9h-16v-3.98l17.92-23.02H185v23h5v4h-5v9H180z M168.64,87.52H181V71.33L168.64,87.52z"/>
			<path class="st3" d="M220.55,78.3c0,2.28-0.33,4.37-0.98,6.28c-0.66,1.91-1.57,3.57-2.74,4.97c-1.17,1.4-2.56,2.48-4.16,3.26
				c-1.6,0.78-3.34,1.16-5.2,1.16c-1.9,0-3.65-0.39-5.25-1.16c-1.6-0.78-2.98-1.86-4.14-3.26c-1.16-1.4-2.06-3.05-2.72-4.97
				c-0.66-1.91-0.98-4.01-0.98-6.28s0.33-4.37,0.98-6.28c0.65-1.91,1.56-3.57,2.72-4.97c1.15-1.4,2.53-2.49,4.14-3.28
				c1.6-0.79,3.35-1.19,5.25-1.19c1.86,0,3.59,0.4,5.2,1.19c1.6,0.79,2.99,1.89,4.16,3.28c1.17,1.4,2.09,3.05,2.74,4.97
				C220.22,73.93,220.55,76.03,220.55,78.3z M215.95,78.3c0-1.69-0.21-3.24-0.62-4.66c-0.41-1.41-1-2.63-1.76-3.65
				c-0.76-1.02-1.66-1.8-2.69-2.35c-1.03-0.55-2.17-0.83-3.41-0.83c-1.28,0-2.44,0.28-3.49,0.83c-1.05,0.55-1.95,1.34-2.69,2.35
				c-0.74,1.02-1.32,2.23-1.73,3.65c-0.41,1.41-0.62,2.97-0.62,4.66c0,1.72,0.21,3.28,0.62,4.68c0.41,1.4,0.99,2.6,1.73,3.59
				c0.74,1,1.64,1.78,2.69,2.33c1.05,0.55,2.22,0.83,3.49,0.83c1.24,0,2.38-0.28,3.41-0.83c1.03-0.55,1.93-1.33,2.69-2.33
				c0.76-1,1.34-2.2,1.76-3.59C215.74,81.59,215.95,80.03,215.95,78.3z"/>
			<path class="st3" d="M241,100.52v-9h-16v-3.98l17.92-23.02H246v23h5v4h-5v9H241z M229.64,87.52H242V71.33L229.64,87.52z"/>
		</g>
	</g>
</g>
<g>
</g>
<g>
</g>
<g>
</g>
<g>
</g>
<g>
</g>
<g>
</g>
<g>
</g>
<g>
</g>
<g>
</g>
<g>
</g>
<g>
</g>
<g>
</g>
<g>
</g>
<g>
</g>
<g>
</g>
</svg>
