<?xml version="1.0" encoding="utf-8"?>
<!-- Generator: Adobe Illustrator 21.0.2, SVG Export Plug-In . SVG Version: 6.00 Build 0)  -->
<svg version="1.1" id="Layer_1" xmlns="http://www.w3.org/2000/svg" xmlns:xlink="http://www.w3.org/1999/xlink" x="0px" y="0px"
	 viewBox="0 0 344.75 453.26" style="enable-background:new 0 0 344.75 453.26;" xml:space="preserve">
<style type="text/css">
	.st0{fill:none;}
	.st1{fill:none;stroke:#231F20;stroke-linecap:round;stroke-linejoin:round;stroke-miterlimit:10;}
	.st2{fill:#231F20;}
	.st3{fill:none;stroke:#4DE0F4;stroke-linecap:round;stroke-linejoin:round;stroke-miterlimit:10;}
	.st4{fill:#FF0087;}
	.st5{fill:#F00F91;stroke:#4DE0F4;stroke-linecap:round;stroke-linejoin:round;stroke-miterlimit:10;}
	.st6{fill:#FFDA00;stroke:#4DE0F4;stroke-linecap:round;stroke-linejoin:round;stroke-miterlimit:10;}
	.st7{fill:#FFB3E6;stroke:#4DE0F4;stroke-linecap:round;stroke-linejoin:round;stroke-miterlimit:10;}
	.st8{fill:#AD91E1;stroke:#4DE0F4;stroke-linecap:round;stroke-linejoin:round;stroke-miterlimit:10;}
	.st9{fill:#3CE1E5;stroke:#4DE0F4;stroke-linecap:round;stroke-linejoin:round;stroke-miterlimit:10;}
	.st10{fill:#D961C2;stroke:#4DE0F4;stroke-linecap:round;stroke-linejoin:round;stroke-miterlimit:10;}
	.st11{fill:#FFFFFF;stroke:#3CE1E5;stroke-miterlimit:10;}
	.st12{fill:#FFFFFF;stroke:#FFFFFF;stroke-width:2;stroke-linecap:round;stroke-linejoin:round;stroke-miterlimit:10;}
	.st13{fill:#F9C900;stroke:#4DE0F4;stroke-linecap:round;stroke-linejoin:round;stroke-miterlimit:10;}
	.st14{display:none;fill:url(#New_Pattern_2);}
	.st15{display:none;fill:url(#SVGID_1_);}
	.st16{fill:url(#SVGID_2_);}
</style>
<pattern  width="433.43" height="568.87" patternUnits="userSpaceOnUse" id="New_Pattern" viewBox="122.86 -682.1 433.43 568.87" style="overflow:visible;">
	<g>
		<rect x="122.86" y="-682.1" class="st0" width="433.43" height="568.87"/>
		<g>
			<g>
				<g>
					<polygon class="st1" points="515.74,-181.61 597.4,-99.94 619.07,-181.61 					"/>
					<polygon class="st1" points="597.4,-99.94 551.29,-0.5 515.74,-181.61 					"/>
					<polygon class="st1" points="515.74,-181.61 457.96,-113.83 536.93,-73.63 					"/>
					<polygon class="st1" points="536.93,-73.63 457.96,-113.83 551.29,-0.5 					"/>
					<polygon class="st1" points="515.74,-181.61 567.4,-254.94 619.07,-181.61 					"/>
					<polygon class="st1" points="515.74,-181.61 365.74,-200.5 457.96,-113.83 					"/>
					<polygon class="st1" points="567.4,-254.94 436.42,-191.6 515.74,-181.61 					"/>
					<polygon class="st1" points="365.74,-200.5 342.4,-84.94 427.22,-142.72 					"/>
					<polygon class="st1" points="551.29,-0.5 457.96,-113.83 342.4,-84.94 					"/>
				</g>
				<polygon class="st1" points="427.22,-142.72 342.4,-84.94 457.96,-113.83 				"/>
			</g>
			<circle class="st2" cx="365.74" cy="-200.5" r="2.82"/>
			<circle class="st2" cx="427.22" cy="-142.72" r="2.82"/>
			<circle class="st2" cx="436.42" cy="-191.6" r="2.82"/>
			<circle class="st2" cx="457.96" cy="-113.83" r="2.82"/>
			<circle class="st2" cx="515.74" cy="-180.61" r="2.82"/>
			<polygon class="st1" points="365.74,-200.5 336.29,-180.61 342.4,-84.94 			"/>
			<polygon class="st1" points="342.4,-84.94 299.79,-43.83 336.29,-180.61 			"/>
			<polygon class="st1" points="433.93,-257.58 567.75,-255.6 515.38,-327.87 			"/>
			<polygon class="st1" points="436.42,-191.6 433.93,-257.58 567.75,-255.6 			"/>
			<polygon class="st1" points="336.29,-284.23 365.74,-200.5 433.93,-257.58 			"/>
			<polygon class="st1" points="558.9,-368.12 567.75,-255.6 515.38,-327.87 			"/>
		</g>
		<g>
			<g>
				<g>
					<polygon class="st1" points="82.31,-181.61 163.98,-99.94 185.64,-181.61 					"/>
					<polygon class="st1" points="163.98,-99.94 117.86,-0.5 82.31,-181.61 					"/>
					<polygon class="st1" points="185.64,-181.61 191.2,-63.83 163.98,-99.94 					"/>
					<polygon class="st1" points="185.64,-181.61 241.76,-113.38 298.98,-43.83 191.2,-63.83 					"/>
					<polygon class="st1" points="336.75,-181.61 241.76,-113.38 298.98,-43.83 					"/>
					<polygon class="st1" points="82.31,-181.61 133.98,-254.94 185.64,-181.61 					"/>
					<polygon class="st1" points="336.75,-181.61 185.64,-181.61 241.76,-113.38 					"/>
					<polygon class="st1" points="133.98,-254.94 273.42,-181.61 185.64,-181.61 					"/>
					<polygon class="st1" points="133.98,-254.94 3,-191.6 82.31,-181.61 					"/>
				</g>
			</g>
			<circle class="st2" cx="241.76" cy="-113.83" r="2.82"/>
			<circle class="st2" cx="336.75" cy="-181.61" r="2.82"/>
			<circle class="st2" cx="271.6" cy="-181.61" r="2.82"/>
			<circle class="st2" cx="185.64" cy="-180.61" r="2.82"/>
			<polygon class="st1" points="0.5,-257.58 134.33,-255.6 81.95,-327.87 			"/>
			<polygon class="st1" points="3,-191.6 0.5,-257.58 134.33,-255.6 			"/>
			<polygon class="st1" points="271.6,-181.61 333.93,-284.23 336.75,-181.61 			"/>
			<polygon class="st1" points="134.33,-255.6 194.02,-341.23 190.68,-273.25 188.37,-226.34 			"/>
			<polygon class="st1" points="271.6,-181.61 190.68,-273.25 188.37,-226.34 			"/>
			<polygon class="st1" points="274.42,-309.23 301.8,-231.33 333.93,-284.23 			"/>
			<polygon class="st1" points="125.48,-368.12 134.33,-255.6 81.95,-327.87 			"/>
			<polygon class="st1" points="194.02,-341.23 274.42,-309.23 190.68,-273.25 			"/>
			<circle class="st2" cx="191.2" cy="-272.91" r="2.82"/>
			<circle class="st2" cx="194.02" cy="-341.23" r="2.82"/>
			<circle class="st2" cx="133.98" cy="-255.44" r="2.82"/>
			<circle class="st2" cx="274.42" cy="-308.24" r="2.82"/>
			<circle class="st2" cx="301.8" cy="-231.33" r="2.82"/>
		</g>
		<g>
			<polygon class="st1" points="582.45,-484.94 553,-465.05 559.11,-369.38 			"/>
			<polygon class="st1" points="559.11,-369.38 516.5,-328.27 553,-465.05 			"/>
			<polygon class="st1" points="553,-568.66 582.45,-484.94 650.64,-542.01 			"/>
		</g>
		<g>
			<g>
				<g>
					<polygon class="st1" points="299.02,-466.05 380.69,-384.38 402.36,-466.05 					"/>
					<polygon class="st1" points="380.69,-384.38 334.58,-284.94 299.02,-466.05 					"/>
					<polygon class="st1" points="380.69,-384.38 407.91,-348.27 334.58,-284.94 					"/>
					<polygon class="st1" points="299.02,-466.05 241.24,-398.27 320.22,-358.07 					"/>
					<polygon class="st1" points="320.22,-358.07 241.24,-398.27 334.58,-284.94 					"/>
					<polygon class="st1" points="402.36,-466.05 407.91,-348.27 380.69,-384.38 					"/>
					<polygon class="st1" points="334.58,-284.94 433.47,-258.27 407.91,-348.27 					"/>
					<polygon class="st1" points="407.91,-348.27 515.69,-328.27 433.47,-258.27 					"/>
					<polygon class="st1" points="402.36,-466.05 458.48,-397.82 515.69,-328.27 407.91,-348.27 					"/>
					<polygon class="st1" points="553.47,-466.05 458.48,-397.82 515.69,-328.27 					"/>
					<polygon class="st1" points="299.02,-466.05 350.69,-539.38 402.36,-466.05 					"/>
					<polygon class="st1" points="553.47,-466.05 402.36,-466.05 458.48,-397.82 					"/>
					<polygon class="st1" points="350.69,-539.38 490.13,-466.05 402.36,-466.05 					"/>
					<polygon class="st1" points="299.02,-466.05 149.02,-484.94 241.24,-398.27 					"/>
					<polygon class="st1" points="350.69,-539.38 219.71,-476.03 299.02,-466.05 					"/>
					<polygon class="st1" points="149.02,-484.94 125.69,-369.38 210.5,-427.16 					"/>
					<polygon class="st1" points="334.58,-284.94 241.24,-398.27 125.69,-369.38 					"/>
				</g>
				<polygon class="st1" points="210.5,-427.16 125.69,-369.38 241.24,-398.27 				"/>
			</g>
			<circle class="st2" cx="149.02" cy="-484.94" r="2.82"/>
			<circle class="st2" cx="210.5" cy="-427.16" r="2.82"/>
			<circle class="st2" cx="219.71" cy="-476.03" r="2.82"/>
			<circle class="st2" cx="125.69" cy="-369.38" r="2.82"/>
			<circle class="st2" cx="241.24" cy="-398.27" r="2.82"/>
			<circle class="st2" cx="334.58" cy="-284.94" r="2.82"/>
			<circle class="st2" cx="320.22" cy="-358.07" r="2.82"/>
			<circle class="st2" cx="380.69" cy="-384.38" r="2.82"/>
			<circle class="st2" cx="407.91" cy="-348.27" r="2.82"/>
			<circle class="st2" cx="433.47" cy="-258.27" r="2.82"/>
			<circle class="st2" cx="515.69" cy="-328.27" r="2.82"/>
			<circle class="st2" cx="458.48" cy="-398.27" r="2.82"/>
			<circle class="st2" cx="553.47" cy="-466.05" r="2.82"/>
			<circle class="st2" cx="488.31" cy="-466.05" r="2.82"/>
			<circle class="st2" cx="402.36" cy="-465.05" r="2.82"/>
			<circle class="st2" cx="299.02" cy="-465.05" r="2.82"/>
			<polygon class="st1" points="149.02,-484.94 119.58,-465.05 125.69,-369.38 			"/>
			<polygon class="st1" points="125.69,-369.38 83.08,-328.27 119.58,-465.05 			"/>
			<polygon class="st1" points="217.21,-542.01 351.04,-540.03 298.67,-612.31 			"/>
			<polygon class="st1" points="219.71,-476.03 217.21,-542.01 351.04,-540.03 			"/>
			<polygon class="st1" points="119.58,-568.66 149.02,-484.94 217.21,-542.01 			"/>
			<polygon class="st1" points="488.31,-466.05 550.64,-568.66 553.47,-466.05 			"/>
			<polygon class="st1" points="351.04,-540.03 410.74,-625.66 407.39,-557.69 405.09,-510.77 			"/>
			<polygon class="st1" points="488.31,-466.05 407.39,-557.69 405.09,-510.77 			"/>
			<polygon class="st1" points="491.13,-593.66 518.51,-515.77 550.64,-568.66 			"/>
			<polygon class="st1" points="342.19,-652.55 351.04,-540.03 298.67,-612.31 			"/>
			<polygon class="st1" points="410.74,-625.66 491.13,-593.66 407.39,-557.69 			"/>
			<circle class="st2" cx="407.91" cy="-557.35" r="2.82"/>
			<circle class="st2" cx="410.74" cy="-625.66" r="2.82"/>
			<circle class="st2" cx="350.69" cy="-539.88" r="2.82"/>
			<circle class="st2" cx="491.13" cy="-592.68" r="2.82"/>
			<circle class="st2" cx="518.51" cy="-515.77" r="2.82"/>
		</g>
		<g>
			<g>
				<g>
					<polygon class="st1" points="515.74,-750.48 597.4,-668.81 619.07,-750.48 					"/>
					<polygon class="st1" points="597.4,-668.81 551.29,-569.37 515.74,-750.48 					"/>
					<polygon class="st1" points="597.4,-668.81 624.62,-632.7 551.29,-569.37 					"/>
					<polygon class="st1" points="515.74,-750.48 457.96,-682.7 536.93,-642.5 					"/>
					<polygon class="st1" points="536.93,-642.5 457.96,-682.7 551.29,-569.37 					"/>
					<polygon class="st1" points="551.29,-569.37 650.18,-542.7 624.62,-632.7 					"/>
					<polygon class="st1" points="365.74,-769.37 342.4,-653.81 427.22,-711.59 					"/>
					<polygon class="st1" points="551.29,-569.37 457.96,-682.7 342.4,-653.81 					"/>
				</g>
				<polygon class="st1" points="427.22,-711.59 342.4,-653.81 457.96,-682.7 				"/>
			</g>
			<circle class="st2" cx="342.4" cy="-653.81" r="2.82"/>
			<circle class="st2" cx="457.96" cy="-682.7" r="2.82"/>
			<circle class="st2" cx="551.29" cy="-569.37" r="2.82"/>
			<circle class="st2" cx="536.93" cy="-642.5" r="2.82"/>
			<polygon class="st1" points="365.74,-769.37 336.29,-749.48 342.4,-653.81 			"/>
			<polygon class="st1" points="342.4,-653.81 299.79,-612.7 336.29,-749.48 			"/>
		</g>
		<g>
			<g>
				<g>
					<polygon class="st1" points="82.31,-750.48 163.98,-668.81 185.64,-750.48 					"/>
					<polygon class="st1" points="163.98,-668.81 117.86,-569.37 82.31,-750.48 					"/>
					<polygon class="st1" points="163.98,-668.81 191.2,-632.7 117.86,-569.37 					"/>
					<polygon class="st1" points="185.64,-750.48 191.2,-632.7 163.98,-668.81 					"/>
					<polygon class="st1" points="117.86,-569.37 216.75,-542.7 191.2,-632.7 					"/>
					<polygon class="st1" points="191.2,-632.7 298.98,-612.7 216.75,-542.7 					"/>
					<polygon class="st1" points="185.64,-750.48 241.76,-682.25 298.98,-612.7 191.2,-632.7 					"/>
					<polygon class="st1" points="336.75,-750.48 241.76,-682.25 298.98,-612.7 					"/>
					<polygon class="st1" points="336.75,-750.48 185.64,-750.48 241.76,-682.25 					"/>
				</g>
			</g>
			<circle class="st2" cx="163.98" cy="-668.81" r="2.82"/>
			<circle class="st2" cx="191.2" cy="-632.7" r="2.82"/>
			<circle class="st2" cx="216.75" cy="-542.7" r="2.82"/>
			<circle class="st2" cx="298.98" cy="-612.7" r="2.82"/>
			<circle class="st2" cx="241.76" cy="-682.7" r="2.82"/>
		</g>
	</g>
</pattern>
<pattern  width="433.43" height="568.87" patternUnits="userSpaceOnUse" id="New_Pattern_2" viewBox="122.86 -682.1 433.43 568.87" style="overflow:visible;">
	<g>
		<rect x="122.86" y="-682.1" class="st0" width="433.43" height="568.87"/>
		<g>
			<g>
				<g>
					<g>
						<polygon class="st3" points="515.74,-181.61 597.4,-99.94 619.07,-181.61 						"/>
						<polygon class="st3" points="597.4,-99.94 551.29,-0.5 515.74,-181.61 						"/>
						<polygon class="st3" points="515.74,-181.61 457.96,-113.83 536.93,-73.63 						"/>
						<polygon class="st3" points="536.93,-73.63 457.96,-113.83 551.29,-0.5 						"/>
						<polygon class="st3" points="515.74,-181.61 567.4,-254.94 619.07,-181.61 						"/>
						<polygon class="st3" points="515.74,-181.61 365.74,-200.5 457.96,-113.83 						"/>
						<polygon class="st3" points="567.4,-254.94 436.42,-191.6 515.74,-181.61 						"/>
						<polygon class="st3" points="365.74,-200.5 342.4,-84.94 427.22,-142.72 						"/>
						<polygon class="st3" points="551.29,-0.5 457.96,-113.83 342.4,-84.94 						"/>
					</g>
					<polygon class="st3" points="427.22,-142.72 342.4,-84.94 457.96,-113.83 					"/>
				</g>
				<polygon class="st3" points="365.74,-200.5 336.29,-180.61 342.4,-84.94 				"/>
				<polygon class="st3" points="342.4,-84.94 299.79,-43.83 336.29,-180.61 				"/>
				<polygon class="st3" points="433.93,-257.58 567.75,-255.6 515.38,-327.87 				"/>
				<polygon class="st3" points="436.42,-191.6 433.93,-257.58 567.75,-255.6 				"/>
				<polygon class="st3" points="336.29,-284.23 365.74,-200.5 433.93,-257.58 				"/>
				<polygon class="st3" points="558.9,-368.12 567.75,-255.6 515.38,-327.87 				"/>
			</g>
			<g>
				<circle class="st4" cx="365.74" cy="-200.5" r="2.82"/>
				<circle class="st4" cx="427.22" cy="-142.72" r="2.82"/>
				<circle class="st4" cx="436.42" cy="-191.6" r="2.82"/>
				<circle class="st4" cx="457.96" cy="-113.83" r="2.82"/>
				<circle class="st4" cx="515.74" cy="-180.61" r="2.82"/>
			</g>
		</g>
		<g>
			<g>
				<g>
					<g>
						<polygon class="st3" points="82.31,-181.61 163.98,-99.94 185.64,-181.61 						"/>
						<polygon class="st3" points="163.98,-99.94 117.86,-0.5 82.31,-181.61 						"/>
						<polygon class="st3" points="185.64,-181.61 191.2,-63.83 163.98,-99.94 						"/>
						<polygon class="st3" points="185.64,-181.61 241.76,-113.38 298.98,-43.83 191.2,-63.83 						"/>
						<polygon class="st3" points="336.75,-181.61 241.76,-113.38 298.98,-43.83 						"/>
						<polygon class="st3" points="82.31,-181.61 133.98,-254.94 185.64,-181.61 						"/>
						<polygon class="st3" points="336.75,-181.61 185.64,-181.61 241.76,-113.38 						"/>
						<polygon class="st3" points="133.98,-254.94 273.42,-181.61 185.64,-181.61 						"/>
						<polygon class="st3" points="133.98,-254.94 3,-191.6 82.31,-181.61 						"/>
					</g>
				</g>
				<polygon class="st3" points="0.5,-257.58 134.33,-255.6 81.95,-327.87 				"/>
				<polygon class="st3" points="3,-191.6 0.5,-257.58 134.33,-255.6 				"/>
				<polygon class="st3" points="271.6,-181.61 333.93,-284.23 336.75,-181.61 				"/>
				<polygon class="st3" points="134.33,-255.6 194.02,-341.23 190.68,-273.25 188.37,-226.34 				"/>
				<polygon class="st3" points="271.6,-181.61 190.68,-273.25 188.37,-226.34 				"/>
				<polygon class="st3" points="274.42,-309.23 301.8,-231.33 333.93,-284.23 				"/>
				<polygon class="st3" points="125.48,-368.12 134.33,-255.6 81.95,-327.87 				"/>
				<polygon class="st3" points="194.02,-341.23 274.42,-309.23 190.68,-273.25 				"/>
			</g>
			<g>
				<circle class="st4" cx="241.76" cy="-113.83" r="2.82"/>
				<circle class="st4" cx="336.75" cy="-181.61" r="2.82"/>
				<circle class="st4" cx="271.6" cy="-181.61" r="2.82"/>
				<circle class="st4" cx="185.64" cy="-180.61" r="2.82"/>
				<circle class="st4" cx="191.2" cy="-272.91" r="2.82"/>
				<circle class="st4" cx="194.02" cy="-341.23" r="2.82"/>
				<circle class="st4" cx="133.98" cy="-255.44" r="2.82"/>
				<circle class="st4" cx="274.42" cy="-308.24" r="2.82"/>
				<circle class="st4" cx="301.8" cy="-231.33" r="2.82"/>
			</g>
		</g>
		<g>
			<g>
				<polygon class="st3" points="582.45,-484.94 553,-465.05 559.11,-369.38 				"/>
				<polygon class="st3" points="559.11,-369.38 516.5,-328.27 553,-465.05 				"/>
				<polygon class="st3" points="553,-568.66 582.45,-484.94 650.64,-542.01 				"/>
			</g>
		</g>
		<g>
			<g>
				<g>
					<g>
						<polygon class="st3" points="299.02,-466.05 380.69,-384.38 402.36,-466.05 						"/>
						<polygon class="st3" points="380.69,-384.38 334.58,-284.94 299.02,-466.05 						"/>
						<polygon class="st3" points="380.69,-384.38 407.91,-348.27 334.58,-284.94 						"/>
						<polygon class="st3" points="299.02,-466.05 241.24,-398.27 320.22,-358.07 						"/>
						<polygon class="st3" points="320.22,-358.07 241.24,-398.27 334.58,-284.94 						"/>
						<polygon class="st3" points="402.36,-466.05 407.91,-348.27 380.69,-384.38 						"/>
						<polygon class="st3" points="334.58,-284.94 433.47,-258.27 407.91,-348.27 						"/>
						<polygon class="st3" points="407.91,-348.27 515.69,-328.27 433.47,-258.27 						"/>
						<polygon class="st3" points="402.36,-466.05 458.48,-397.82 515.69,-328.27 407.91,-348.27 						"/>
						<polygon class="st3" points="553.47,-466.05 458.48,-397.82 515.69,-328.27 						"/>
						<polygon class="st3" points="299.02,-466.05 350.69,-539.38 402.36,-466.05 						"/>
						<polygon class="st3" points="553.47,-466.05 402.36,-466.05 458.48,-397.82 						"/>
						<polygon class="st3" points="350.69,-539.38 490.13,-466.05 402.36,-466.05 						"/>
						<polygon class="st3" points="299.02,-466.05 149.02,-484.94 241.24,-398.27 						"/>
						<polygon class="st3" points="350.69,-539.38 219.71,-476.03 299.02,-466.05 						"/>
						<polygon class="st3" points="149.02,-484.94 125.69,-369.38 210.5,-427.16 						"/>
						<polygon class="st3" points="334.58,-284.94 241.24,-398.27 125.69,-369.38 						"/>
					</g>
					<polygon class="st3" points="210.5,-427.16 125.69,-369.38 241.24,-398.27 					"/>
				</g>
				<polygon class="st3" points="149.02,-484.94 119.58,-465.05 125.69,-369.38 				"/>
				<polygon class="st3" points="125.69,-369.38 83.08,-328.27 119.58,-465.05 				"/>
				<polygon class="st3" points="217.21,-542.01 351.04,-540.03 298.67,-612.31 				"/>
				<polygon class="st3" points="219.71,-476.03 217.21,-542.01 351.04,-540.03 				"/>
				<polygon class="st3" points="119.58,-568.66 149.02,-484.94 217.21,-542.01 				"/>
				<polygon class="st3" points="488.31,-466.05 550.64,-568.66 553.47,-466.05 				"/>
				<polygon class="st3" points="351.04,-540.03 410.74,-625.66 407.39,-557.69 405.09,-510.77 				"/>
				<polygon class="st3" points="488.31,-466.05 407.39,-557.69 405.09,-510.77 				"/>
				<polygon class="st3" points="491.13,-593.66 518.51,-515.77 550.64,-568.66 				"/>
				<polygon class="st3" points="342.19,-652.55 351.04,-540.03 298.67,-612.31 				"/>
				<polygon class="st3" points="410.74,-625.66 491.13,-593.66 407.39,-557.69 				"/>
			</g>
			<g>
				<circle class="st4" cx="149.02" cy="-484.94" r="2.82"/>
				<circle class="st4" cx="210.5" cy="-427.16" r="2.82"/>
				<circle class="st4" cx="219.71" cy="-476.03" r="2.82"/>
				<circle class="st4" cx="125.69" cy="-369.38" r="2.82"/>
				<circle class="st4" cx="241.24" cy="-398.27" r="2.82"/>
				<circle class="st4" cx="334.58" cy="-284.94" r="2.82"/>
				<circle class="st4" cx="320.22" cy="-358.07" r="2.82"/>
				<circle class="st4" cx="380.69" cy="-384.38" r="2.82"/>
				<circle class="st4" cx="407.91" cy="-348.27" r="2.82"/>
				<circle class="st4" cx="433.47" cy="-258.27" r="2.82"/>
				<circle class="st4" cx="515.69" cy="-328.27" r="2.82"/>
				<circle class="st4" cx="458.48" cy="-398.27" r="2.82"/>
				<circle class="st4" cx="553.47" cy="-466.05" r="2.82"/>
				<circle class="st4" cx="488.31" cy="-466.05" r="2.82"/>
				<circle class="st4" cx="402.36" cy="-465.05" r="2.82"/>
				<circle class="st4" cx="299.02" cy="-465.05" r="2.82"/>
				<circle class="st4" cx="407.91" cy="-557.35" r="2.82"/>
				<circle class="st4" cx="410.74" cy="-625.66" r="2.82"/>
				<circle class="st4" cx="350.69" cy="-539.88" r="2.82"/>
				<circle class="st4" cx="491.13" cy="-592.68" r="2.82"/>
				<circle class="st4" cx="518.51" cy="-515.77" r="2.82"/>
			</g>
		</g>
		<g>
			<g>
				<g>
					<g>
						<polygon class="st3" points="515.74,-750.48 597.4,-668.81 619.07,-750.48 						"/>
						<polygon class="st3" points="597.4,-668.81 551.29,-569.37 515.74,-750.48 						"/>
						<polygon class="st3" points="597.4,-668.81 624.62,-632.7 551.29,-569.37 						"/>
						<polygon class="st3" points="515.74,-750.48 457.96,-682.7 536.93,-642.5 						"/>
						<polygon class="st3" points="536.93,-642.5 457.96,-682.7 551.29,-569.37 						"/>
						<polygon class="st3" points="551.29,-569.37 650.18,-542.7 624.62,-632.7 						"/>
						<polygon class="st3" points="365.74,-769.37 342.4,-653.81 427.22,-711.59 						"/>
						<polygon class="st3" points="551.29,-569.37 457.96,-682.7 342.4,-653.81 						"/>
					</g>
					<polygon class="st3" points="427.22,-711.59 342.4,-653.81 457.96,-682.7 					"/>
				</g>
				<polygon class="st3" points="365.74,-769.37 336.29,-749.48 342.4,-653.81 				"/>
				<polygon class="st3" points="342.4,-653.81 299.79,-612.7 336.29,-749.48 				"/>
			</g>
			<g>
				<circle class="st4" cx="342.4" cy="-653.81" r="2.82"/>
				<circle class="st4" cx="457.96" cy="-682.7" r="2.82"/>
				<circle class="st4" cx="551.29" cy="-569.37" r="2.82"/>
				<circle class="st4" cx="536.93" cy="-642.5" r="2.82"/>
			</g>
		</g>
		<g>
			<g>
				<g>
					<g>
						<polygon class="st3" points="82.31,-750.48 163.98,-668.81 185.64,-750.48 						"/>
						<polygon class="st3" points="163.98,-668.81 117.86,-569.37 82.31,-750.48 						"/>
						<polygon class="st3" points="163.98,-668.81 191.2,-632.7 117.86,-569.37 						"/>
						<polygon class="st3" points="185.64,-750.48 191.2,-632.7 163.98,-668.81 						"/>
						<polygon class="st3" points="117.86,-569.37 216.75,-542.7 191.2,-632.7 						"/>
						<polygon class="st3" points="191.2,-632.7 298.98,-612.7 216.75,-542.7 						"/>
						<polygon class="st3" points="185.64,-750.48 241.76,-682.25 298.98,-612.7 191.2,-632.7 						"/>
						<polygon class="st3" points="336.75,-750.48 241.76,-682.25 298.98,-612.7 						"/>
						<polygon class="st3" points="336.75,-750.48 185.64,-750.48 241.76,-682.25 						"/>
					</g>
				</g>
			</g>
			<g>
				<circle class="st4" cx="163.98" cy="-668.81" r="2.82"/>
				<circle class="st4" cx="191.2" cy="-632.7" r="2.82"/>
				<circle class="st4" cx="216.75" cy="-542.7" r="2.82"/>
				<circle class="st4" cx="298.98" cy="-612.7" r="2.82"/>
				<circle class="st4" cx="241.76" cy="-682.7" r="2.82"/>
			</g>
		</g>
	</g>
</pattern>
<pattern  width="433.43" height="568.87" patternUnits="userSpaceOnUse" id="New_Pattern_3" viewBox="122.86 -682.1 433.43 568.87" style="overflow:visible;">
	<g>
		<rect x="122.86" y="-682.1" class="st0" width="433.43" height="568.87"/>
		<g>
			<g>
				<g>
					<g>
						<polygon class="st5" points="515.74,-181.61 597.4,-99.94 619.07,-181.61 						"/>
						<polygon class="st6" points="597.4,-99.94 551.29,-0.5 515.74,-181.61 						"/>
						<polygon class="st7" points="515.74,-181.61 457.96,-113.83 536.93,-73.63 						"/>
						<polygon class="st8" points="536.93,-73.63 457.96,-113.83 551.29,-0.5 						"/>
						<polygon class="st7" points="515.74,-181.61 567.4,-254.94 619.07,-181.61 						"/>
						<polygon class="st9" points="515.74,-181.61 365.74,-200.5 457.96,-113.83 						"/>
						<polygon class="st10" points="567.4,-254.94 436.42,-191.6 515.74,-181.61 						"/>
						<polygon class="st6" points="365.74,-200.5 342.4,-84.94 427.22,-142.72 						"/>
						<polygon class="st9" points="551.29,-0.5 457.96,-113.83 342.4,-84.94 						"/>
					</g>
					<polygon class="st8" points="427.22,-142.72 342.4,-84.94 457.96,-113.83 					"/>
				</g>
				<polygon class="st7" points="365.74,-200.5 336.29,-180.61 342.4,-84.94 				"/>
				<polygon class="st10" points="342.4,-84.94 299.79,-43.83 336.29,-180.61 				"/>
				<polygon class="st7" points="433.93,-257.58 567.75,-255.6 515.38,-327.87 				"/>
				<polygon class="st6" points="436.42,-191.6 433.93,-257.58 567.75,-255.6 				"/>
				<polygon class="st5" points="336.29,-284.23 365.74,-200.5 433.93,-257.58 				"/>
				<polygon class="st11" points="558.9,-368.12 567.75,-255.6 515.38,-327.87 				"/>
			</g>
			<g>
				<circle class="st12" cx="365.74" cy="-200.5" r="2.82"/>
				<circle class="st12" cx="427.22" cy="-142.72" r="2.82"/>
				<circle class="st12" cx="436.42" cy="-191.6" r="2.82"/>
				<circle class="st12" cx="457.96" cy="-113.83" r="2.82"/>
				<circle class="st12" cx="515.74" cy="-180.61" r="2.82"/>
			</g>
		</g>
		<g>
			<g>
				<g>
					<g>
						<polygon class="st5" points="82.31,-181.61 163.98,-99.94 185.64,-181.61 						"/>
						<polygon class="st6" points="163.98,-99.94 117.86,-0.5 82.31,-181.61 						"/>
						<polygon class="st7" points="185.64,-181.61 191.2,-63.83 163.98,-99.94 						"/>
						<polygon class="st10" points="185.64,-181.61 241.76,-113.38 298.98,-43.83 191.2,-63.83 						"/>
						<polygon class="st8" points="336.75,-181.61 241.76,-113.38 298.98,-43.83 						"/>
						<polygon class="st7" points="82.31,-181.61 133.98,-254.94 185.64,-181.61 						"/>
						<polygon class="st9" points="336.75,-181.61 185.64,-181.61 241.76,-113.38 						"/>
						<polygon class="st11" points="133.98,-254.94 273.42,-181.61 185.64,-181.61 						"/>
						<polygon class="st10" points="133.98,-254.94 3,-191.6 82.31,-181.61 						"/>
					</g>
				</g>
				<polygon class="st7" points="0.5,-257.58 134.33,-255.6 81.95,-327.87 				"/>
				<polygon class="st6" points="3,-191.6 0.5,-257.58 134.33,-255.6 				"/>
				<polygon class="st10" points="271.6,-181.61 333.93,-284.23 336.75,-181.61 				"/>
				<polygon class="st9" points="134.33,-255.6 194.02,-341.23 190.68,-273.25 188.37,-226.34 				"/>
				<polygon class="st7" points="271.6,-181.61 190.68,-273.25 188.37,-226.34 				"/>
				<polygon class="st13" points="274.42,-309.23 301.8,-231.33 333.93,-284.23 				"/>
				<polygon class="st11" points="125.48,-368.12 134.33,-255.6 81.95,-327.87 				"/>
				<polygon class="st5" points="194.02,-341.23 274.42,-309.23 190.68,-273.25 				"/>
			</g>
			<g>
				<circle class="st12" cx="241.76" cy="-113.83" r="2.82"/>
				<circle class="st12" cx="336.75" cy="-181.61" r="2.82"/>
				<circle class="st12" cx="271.6" cy="-181.61" r="2.82"/>
				<circle class="st12" cx="185.64" cy="-180.61" r="2.82"/>
				<circle class="st12" cx="191.2" cy="-272.91" r="2.82"/>
				<circle class="st12" cx="194.02" cy="-341.23" r="2.82"/>
				<circle class="st12" cx="133.98" cy="-255.44" r="2.82"/>
				<circle class="st12" cx="274.42" cy="-308.24" r="2.82"/>
				<circle class="st12" cx="301.8" cy="-231.33" r="2.82"/>
			</g>
		</g>
		<g>
			<g>
				<polygon class="st7" points="582.45,-484.94 553,-465.05 559.11,-369.38 				"/>
				<polygon class="st10" points="559.11,-369.38 516.5,-328.27 553,-465.05 				"/>
				<polygon class="st5" points="553,-568.66 582.45,-484.94 650.64,-542.01 				"/>
			</g>
			<g>
				<circle class="st12" cx="559.11" cy="-369.38" r="2.82"/>
			</g>
		</g>
		<g>
			<g>
				<g>
					<g>
						<polygon class="st5" points="299.02,-466.05 380.69,-384.38 402.36,-466.05 						"/>
						<polygon class="st6" points="380.69,-384.38 334.58,-284.94 299.02,-466.05 						"/>
						<polygon class="st11" points="380.69,-384.38 407.91,-348.27 334.58,-284.94 						"/>
						<polygon class="st7" points="299.02,-466.05 241.24,-398.27 320.22,-358.07 						"/>
						<polygon class="st8" points="320.22,-358.07 241.24,-398.27 334.58,-284.94 						"/>
						<polygon class="st7" points="402.36,-466.05 407.91,-348.27 380.69,-384.38 						"/>
						<polygon class="st7" points="334.58,-284.94 433.47,-258.27 407.91,-348.27 						"/>
						<polygon class="st6" points="407.91,-348.27 515.69,-328.27 433.47,-258.27 						"/>
						<polygon class="st10" points="402.36,-466.05 458.48,-397.82 515.69,-328.27 407.91,-348.27 						"/>
						<polygon class="st8" points="553.47,-466.05 458.48,-397.82 515.69,-328.27 						"/>
						<polygon class="st7" points="299.02,-466.05 350.69,-539.38 402.36,-466.05 						"/>
						<polygon class="st9" points="553.47,-466.05 402.36,-466.05 458.48,-397.82 						"/>
						<polygon class="st11" points="350.69,-539.38 490.13,-466.05 402.36,-466.05 						"/>
						<polygon class="st9" points="299.02,-466.05 149.02,-484.94 241.24,-398.27 						"/>
						<polygon class="st10" points="350.69,-539.38 219.71,-476.03 299.02,-466.05 						"/>
						<polygon class="st6" points="149.02,-484.94 125.69,-369.38 210.5,-427.16 						"/>
						<polygon class="st9" points="334.58,-284.94 241.24,-398.27 125.69,-369.38 						"/>
					</g>
					<polygon class="st8" points="210.5,-427.16 125.69,-369.38 241.24,-398.27 					"/>
				</g>
				<polygon class="st7" points="149.02,-484.94 119.58,-465.05 125.69,-369.38 				"/>
				<polygon class="st10" points="125.69,-369.38 83.08,-328.27 119.58,-465.05 				"/>
				<polygon class="st7" points="217.21,-542.01 351.04,-540.03 298.67,-612.31 				"/>
				<polygon class="st6" points="219.71,-476.03 217.21,-542.01 351.04,-540.03 				"/>
				<polygon class="st5" points="119.58,-568.66 149.02,-484.94 217.21,-542.01 				"/>
				<polygon class="st10" points="488.31,-466.05 550.64,-568.66 553.47,-466.05 				"/>
				<polygon class="st9" points="351.04,-540.03 410.74,-625.66 407.39,-557.69 405.09,-510.77 				"/>
				<polygon class="st7" points="488.31,-466.05 407.39,-557.69 405.09,-510.77 				"/>
				<polygon class="st13" points="491.13,-593.66 518.51,-515.77 550.64,-568.66 				"/>
				<polygon class="st11" points="342.19,-652.55 351.04,-540.03 298.67,-612.31 				"/>
				<polygon class="st5" points="410.74,-625.66 491.13,-593.66 407.39,-557.69 				"/>
			</g>
			<g>
				<circle class="st12" cx="149.02" cy="-484.94" r="2.82"/>
				<circle class="st12" cx="210.5" cy="-427.16" r="2.82"/>
				<circle class="st12" cx="219.71" cy="-476.03" r="2.82"/>
				<circle class="st12" cx="125.69" cy="-369.38" r="2.82"/>
				<circle class="st12" cx="241.24" cy="-398.27" r="2.82"/>
				<circle class="st12" cx="334.58" cy="-284.94" r="2.82"/>
				<circle class="st12" cx="320.22" cy="-358.07" r="2.82"/>
				<circle class="st12" cx="380.69" cy="-384.38" r="2.82"/>
				<circle class="st12" cx="407.91" cy="-348.27" r="2.82"/>
				<circle class="st12" cx="433.47" cy="-258.27" r="2.82"/>
				<circle class="st12" cx="515.69" cy="-328.27" r="2.82"/>
				<circle class="st12" cx="458.48" cy="-398.27" r="2.82"/>
				<circle class="st12" cx="553.47" cy="-466.05" r="2.82"/>
				<circle class="st12" cx="488.31" cy="-466.05" r="2.82"/>
				<circle class="st12" cx="402.36" cy="-465.05" r="2.82"/>
				<circle class="st12" cx="299.02" cy="-465.05" r="2.82"/>
				<circle class="st12" cx="407.91" cy="-557.35" r="2.82"/>
				<circle class="st12" cx="410.74" cy="-625.66" r="2.82"/>
				<circle class="st12" cx="350.69" cy="-539.88" r="2.82"/>
				<circle class="st12" cx="491.13" cy="-592.68" r="2.82"/>
				<circle class="st12" cx="518.51" cy="-515.77" r="2.82"/>
			</g>
		</g>
		<g>
			<g>
				<circle class="st12" cx="120.04" cy="-466.05" r="2.82"/>
			</g>
		</g>
		<g>
			<g>
				<g>
					<g>
						<polygon class="st5" points="515.74,-750.48 597.4,-668.81 619.07,-750.48 						"/>
						<polygon class="st6" points="597.4,-668.81 551.29,-569.37 515.74,-750.48 						"/>
						<polygon class="st11" points="597.4,-668.81 624.62,-632.7 551.29,-569.37 						"/>
						<polygon class="st7" points="515.74,-750.48 457.96,-682.7 536.93,-642.5 						"/>
						<polygon class="st8" points="536.93,-642.5 457.96,-682.7 551.29,-569.37 						"/>
						<polygon class="st7" points="551.29,-569.37 650.18,-542.7 624.62,-632.7 						"/>
						<polygon class="st6" points="365.74,-769.37 342.4,-653.81 427.22,-711.59 						"/>
						<polygon class="st9" points="551.29,-569.37 457.96,-682.7 342.4,-653.81 						"/>
					</g>
					<polygon class="st8" points="427.22,-711.59 342.4,-653.81 457.96,-682.7 					"/>
				</g>
				<polygon class="st7" points="365.74,-769.37 336.29,-749.48 342.4,-653.81 				"/>
				<polygon class="st10" points="342.4,-653.81 299.79,-612.7 336.29,-749.48 				"/>
			</g>
			<g>
				<circle class="st12" cx="342.4" cy="-653.81" r="2.82"/>
				<circle class="st12" cx="457.96" cy="-682.7" r="2.82"/>
				<circle class="st12" cx="551.29" cy="-569.37" r="2.82"/>
				<circle class="st12" cx="536.93" cy="-642.5" r="2.82"/>
			</g>
		</g>
		<g>
			<g>
				<g>
					<g>
						<polygon class="st5" points="82.31,-750.48 163.98,-668.81 185.64,-750.48 						"/>
						<polygon class="st6" points="163.98,-668.81 117.86,-569.37 82.31,-750.48 						"/>
						<polygon class="st11" points="163.98,-668.81 191.2,-632.7 117.86,-569.37 						"/>
						<polygon class="st7" points="185.64,-750.48 191.2,-632.7 163.98,-668.81 						"/>
						<polygon class="st7" points="117.86,-569.37 216.75,-542.7 191.2,-632.7 						"/>
						<polygon class="st6" points="191.2,-632.7 298.98,-612.7 216.75,-542.7 						"/>
						<polygon class="st10" points="185.64,-750.48 241.76,-682.25 298.98,-612.7 191.2,-632.7 						"/>
						<polygon class="st8" points="336.75,-750.48 241.76,-682.25 298.98,-612.7 						"/>
						<polygon class="st9" points="336.75,-750.48 185.64,-750.48 241.76,-682.25 						"/>
					</g>
				</g>
			</g>
			<g>
				<circle class="st12" cx="163.98" cy="-668.81" r="2.82"/>
				<circle class="st12" cx="191.2" cy="-632.7" r="2.82"/>
				<circle class="st12" cx="216.75" cy="-542.7" r="2.82"/>
				<circle class="st12" cx="298.98" cy="-612.7" r="2.82"/>
				<circle class="st12" cx="241.76" cy="-682.7" r="2.82"/>
			</g>
		</g>
	</g>
</pattern>
<rect x="468.73" class="st14" width="460.73" height="980"/>
<pattern  id="SVGID_1_" xlink:href="#New_Pattern_3" patternTransform="matrix(1 0 0 1 72.4202 0)">
</pattern>
<rect x="939.27" class="st15" width="460.73" height="980"/>
<pattern  id="SVGID_2_" xlink:href="#New_Pattern" patternTransform="matrix(0.7964 0 0 0.7964 -1355.7594 -1405.7781)">
</pattern>
<rect class="st16" width="344.75" height="453.26"/>
<g>
</g>
<g>
</g>
<g>
</g>
<g>
</g>
<g>
</g>
<g>
</g>
</svg>
